<?xml version="1.0" encoding="utf-8"?><svg viewBox="0 0 448 512" xmlns="http://www.w3.org/2000/svg" xmlns:xlink="http://www.w3.org/1999/xlink"><style>:root>svg{display:none}:root>svg:target{display:block}</style><svg viewBox="0 0 448 512" id="bars-solid" xmlns="http://www.w3.org/2000/svg"><!--! Font Awesome Pro 6.3.0 by @fontawesome - https://fontawesome.com License - https://fontawesome.com/license (Commercial License) Copyright 2023 Fonticons, Inc.--><path d="M0 96c0-17.7 14.3-32 32-32h384c17.7 0 32 14.3 32 32s-14.3 32-32 32H32c-17.7 0-32-14.3-32-32zm0 160c0-17.7 14.3-32 32-32h384c17.7 0 32 14.3 32 32s-14.3 32-32 32H32c-17.7 0-32-14.3-32-32zm448 160c0 17.7-14.3 32-32 32H32c-17.7 0-32-14.3-32-32s14.3-32 32-32h384c17.7 0 32 14.3 32 32z"/></svg><svg viewBox="0 0 22 20" id="heart" xmlns="http://www.w3.org/2000/svg"><path d="M11 1.654c2.585-2.282 6.578-2.206 9.067.247a6.416 6.416 0 0 1 .26 8.911L10.998 20l-9.326-9.188a6.417 6.417 0 0 1 .26-8.911C4.424-.549 8.409-.631 11 1.654Zm7.51 1.776c-1.65-1.625-4.313-1.691-6.04-.166L11.002 4.56l-1.47-1.295a4.452 4.452 0 0 0-6.043.167 4.276 4.276 0 0 0-.211 5.898L11 16.937l7.722-7.606a4.277 4.277 0 0 0-.213-5.901Z"/></svg><svg viewBox="0 0 16 16" id="magnifer" xmlns="http://www.w3.org/2000/svg"><path d="m12.523 11.463 3.213 3.211-1.062 1.062-3.211-3.213A6.72 6.72 0 0 1 7.25 14 6.752 6.752 0 0 1 .5 7.25 6.752 6.752 0 0 1 7.25.5 6.752 6.752 0 0 1 14 7.25a6.72 6.72 0 0 1-1.477 4.213Zm-1.504-.557A5.232 5.232 0 0 0 12.5 7.25C12.5 4.349 10.15 2 7.25 2A5.248 5.248 0 0 0 2 7.25c0 2.9 2.349 5.25 5.25 5.25a5.232 5.232 0 0 0 3.656-1.481l.113-.113Z"/></svg><svg viewBox="0 0 15 15" id="phone" xmlns="http://www.w3.org/2000/svg"><path d="M14.625 11v2.799a.792.792 0 0 1-.736.79c-.346.023-.629.036-.847.036C6.046 14.625.375 8.955.375 1.958c0-.218.012-.5.036-.847a.792.792 0 0 1 .79-.736h2.8a.396.396 0 0 1 .394.356c.018.182.035.327.05.437.158 1.098.48 2.166.957 3.168a.36.36 0 0 1-.116.449l-1.709 1.22a10.329 10.329 0 0 0 5.418 5.419l1.22-1.706a.366.366 0 0 1 .453-.118c1.002.476 2.07.798 3.167.954.11.016.255.034.435.05a.396.396 0 0 1 .356.395h-.001Z"/></svg><svg viewBox="0 0 16 15" id="ruller" xmlns="http://www.w3.org/2000/svg"><path d="m13.29 5.09-.426.446c-.683-1.961-2.133-3.554-3.95-4.344l.317-.33a1.147 1.147 0 0 1 1.674 0l2.385 2.485c.46.476.467 1.256 0 1.743ZM6.5 3A4.505 4.505 0 0 0 2 7.5C2 9.98 4.019 12 6.5 12S11 9.981 11 7.5 8.981 3 6.5 3Z"/><path d="M6.553 1.337C2.968 1.2 0 4.187 0 7.915c0 3.63 2.836 6.585 6.32 6.585h4.996c.73 0 1.322-.617 1.322-1.377V8.065c0-3.584-2.73-6.602-6.085-6.728ZM6.32 11.729c-2.02 0-3.662-1.71-3.662-3.814 0-2.103 1.643-3.814 3.662-3.814S9.98 5.812 9.98 7.915c0 2.103-1.642 3.814-3.661 3.814ZM16 9.777v3.391c0 .09-.035.179-.097.24a.32.32 0 0 1-.23.1h-2.418c.025-.125.036-.253.036-.385v-2.42h2.056v-.926c0-.187.145-.34.326-.34.18 0 .327.153.327.34Z"/></svg><svg viewBox="0 0 10 11" id="snake" xmlns="http://www.w3.org/2000/svg"><path d="M9.042 8.124a1.937 1.937 0 0 0-1.315-.082 1.79 1.79 0 0 0-.584.293c-.17.131-.31.29-.41.469a.362.362 0 0 0-.029.062H3.146c-.617 0-1.136-.631-1.136-1.373s.52-1.372 1.136-1.372h3.68c1.402 0 2.543-1.17 2.543-2.61 0-1.437-1.14-2.608-2.543-2.608H3.282a1.63 1.63 0 0 0-.795-.742A1.937 1.937 0 0 0 1.172.08 1.79 1.79 0 0 0 .59.373c-.17.13-.31.29-.411.468A1.35 1.35 0 0 0 .085 2c.071.19.184.364.333.515.148.15.329.273.531.362a1.937 1.937 0 0 0 1.315.082 1.79 1.79 0 0 0 .583-.293c.17-.131.31-.29.411-.469 0 0 0-.037.024-.058h3.544c.617 0 1.14.627 1.14 1.373s-.523 1.372-1.14 1.372h-3.68c-1.402 0-2.538 1.17-2.538 2.61 0 1.438 1.136 2.608 2.538 2.608h3.558c.158.32.44.582.795.738a1.936 1.936 0 0 0 1.315.082c.214-.063.412-.163.583-.294.17-.13.31-.29.411-.468a1.35 1.35 0 0 0 .095-1.158 1.481 1.481 0 0 0-.331-.515 1.71 1.71 0 0 0-.53-.363Z"/></svg><svg viewBox="0 0 21 21" id="status" xmlns="http://www.w3.org/2000/svg"><path d="M10.5.083c5.75 0 10.417 4.667 10.417 10.417S16.25 20.917 10.5 20.917.083 16.25.083 10.5 4.75.083 10.5.083Zm0 18.75a8.331 8.331 0 0 0 8.333-8.333A8.331 8.331 0 0 0 10.5 2.167 8.331 8.331 0 0 0 2.167 10.5a8.331 8.331 0 0 0 8.333 8.333Zm3.683-13.49 1.473 1.474-5.156 5.156L9.027 10.5l5.156-5.156Z"/></svg><svg viewBox="0 0 7 5" id="ungle-bottom" xmlns="http://www.w3.org/2000/svg"><path d="M.775.5 0 1.227 3.486 4.5l.014-.013.014.013L7 1.227 6.225.5 3.5 3.058.775.5Z"/></svg><svg viewBox="0 0 19 19" id="wu" xmlns="http://www.w3.org/2000/svg"><path d="m.091 18.104 1.224-4.399A8.667 8.667 0 0 1 .088 9.25C.088 4.36 4.14.396 9.138.396c5 0 9.051 3.964 9.051 8.854 0 4.89-4.052 8.854-9.05 8.854a9.162 9.162 0 0 1-4.553-1.2l-4.495 1.2ZM5.872 5.096a.885.885 0 0 0-.336.088 1.167 1.167 0 0 0-.266.202c-.108.1-.17.187-.236.271a2.382 2.382 0 0 0-.511 1.486c.001.434.117.856.298 1.25.37.8.98 1.645 1.784 2.429.194.188.383.378.587.554a8.614 8.614 0 0 0 3.475 1.811l.515.078c.168.008.335-.004.503-.012.264-.013.521-.083.755-.205.15-.078.22-.117.346-.194 0 0 .039-.025.113-.08.122-.089.198-.151.299-.255.075-.076.14-.166.19-.268.07-.144.141-.42.17-.649.022-.175.015-.27.013-.33-.004-.095-.084-.193-.172-.234l-.527-.232s-.787-.335-1.268-.55a.46.46 0 0 0-.16-.036.446.446 0 0 0-.342.113v-.002c-.005 0-.065.05-.72.826a.317.317 0 0 1-.333.115 1.31 1.31 0 0 1-.173-.058c-.112-.046-.15-.064-.228-.097l-.004-.001a5.457 5.457 0 0 1-1.421-.886c-.114-.097-.22-.204-.329-.306A5.599 5.599 0 0 1 6.971 8.8l-.054-.084a.81.81 0 0 1-.092-.182c-.034-.13.055-.234.055-.234s.22-.236.323-.363c.085-.106.164-.216.238-.33.106-.169.14-.341.084-.475a72.82 72.82 0 0 0-.786-1.807c-.053-.119-.212-.204-.356-.22a4.106 4.106 0 0 0-.146-.015 3.13 3.13 0 0 0-.365.004Z"/></svg></svg>